<?xml version="1.0" encoding="UTF-8" standalone="no"?>
<!-- Generator: Adobe Illustrator 16.0.0, SVG Export Plug-In . SVG Version: 6.00 Build 0)  -->

<svg
   xmlns:dc="http://purl.org/dc/elements/1.1/"
   xmlns:cc="http://creativecommons.org/ns#"
   xmlns:rdf="http://www.w3.org/1999/02/22-rdf-syntax-ns#"
   xmlns:svg="http://www.w3.org/2000/svg"
   xmlns="http://www.w3.org/2000/svg"
   xmlns:xlink="http://www.w3.org/1999/xlink"
   xmlns:sodipodi="http://sodipodi.sourceforge.net/DTD/sodipodi-0.dtd"
   xmlns:inkscape="http://www.inkscape.org/namespaces/inkscape"
   version="1.1"
   id="Laag_1"
   x="0px"
   y="0px"
   width="325"
   height="325"
   viewBox="0 0 325 325"
   enable-background="new 0 0 550 400"
   xml:space="preserve"
   sodipodi:docname="reproResearch.svg"
   inkscape:version="0.92.3 (2405546, 2018-03-11)"><metadata
   id="metadata15"><rdf:RDF><cc:Work
       rdf:about=""><dc:format>image/svg+xml</dc:format><dc:type
         rdf:resource="http://purl.org/dc/dcmitype/StillImage" /><dc:title></dc:title></cc:Work></rdf:RDF></metadata><defs
   id="defs13"><linearGradient
   inkscape:collect="always"
   id="linearGradient881"><stop
     style="stop-color:#85e885;stop-opacity:1;"
     offset="0"
     id="stop877" /><stop
     style="stop-color:#85e885;stop-opacity:0;"
     offset="1"
     id="stop879" /></linearGradient><linearGradient
   inkscape:collect="always"
   id="linearGradient859"><stop
     style="stop-color:#0000ff;stop-opacity:1;"
     offset="0"
     id="stop855" /><stop
     style="stop-color:#0000ff;stop-opacity:0;"
     offset="1"
     id="stop857" /></linearGradient><linearGradient
   inkscape:collect="always"
   id="linearGradient851"><stop
     style="stop-color:#ffffff;stop-opacity:1;"
     offset="0"
     id="stop847" /><stop
     style="stop-color:#ffffff;stop-opacity:0;"
     offset="1"
     id="stop849" /></linearGradient><linearGradient
   inkscape:collect="always"
   xlink:href="#linearGradient851"
   id="linearGradient853"
   x1="-13.828317"
   y1="-117.79661"
   x2="204.29668"
   y2="-117.79661"
   gradientUnits="userSpaceOnUse"
   gradientTransform="translate(52.083672,298.57766)" /><linearGradient
   inkscape:collect="always"
   xlink:href="#linearGradient859"
   id="linearGradient865"
   x1="-14.369249"
   y1="-117.79661"
   x2="204.83763"
   y2="-117.79661"
   gradientUnits="userSpaceOnUse"
   gradientTransform="translate(52.083672,298.57766)" />
		
		
	<linearGradient
   inkscape:collect="always"
   xlink:href="#linearGradient881"
   id="linearGradient883"
   x1="113.01522"
   y1="481.76575"
   x2="351.78897"
   y2="481.76575"
   gradientUnits="userSpaceOnUse" /><linearGradient
   inkscape:collect="always"
   xlink:href="#linearGradient881"
   id="linearGradient922"
   gradientUnits="userSpaceOnUse"
   x1="113.01522"
   y1="481.76575"
   x2="351.78897"
   y2="481.76575" /></defs><sodipodi:namedview
   pagecolor="#ffffff"
   bordercolor="#666666"
   borderopacity="1"
   objecttolerance="10"
   gridtolerance="10"
   guidetolerance="10"
   inkscape:pageopacity="0"
   inkscape:pageshadow="2"
   inkscape:window-width="958"
   inkscape:window-height="1022"
   id="namedview11"
   showgrid="false"
   fit-margin-top="5"
   fit-margin-left="5"
   fit-margin-bottom="5"
   fit-margin-right="5"
   inkscape:zoom="1.18"
   inkscape:cx="186.08686"
   inkscape:cy="72.777051"
   inkscape:window-x="0"
   inkscape:window-y="20"
   inkscape:window-maximized="0"
   inkscape:current-layer="Laag_1" />

<path
   id="path836"
   d="M 294.11652,235.80084 H 189.54923 c -0.31914,9.12068 -6.34408,14.73305 -14.11999,14.73305 h -26.22161 c -8.06056,0 -14.24075,-8.04333 -14.13294,-14.73305 H 31.900419 C 28.105185,235.80084 25,239.11578 25,243.16737 v 7.36652 c 0,16.20636 12.420757,29.4661 27.601693,29.4661 H 273.41526 c 15.18093,0 27.60169,-13.25974 27.60169,-29.4661 v -7.36652 c 0,-4.05159 -3.10519,-7.36653 -6.90043,-7.36653 z M 273.41526,66.37076 c 0,-12.154771 -9.31557,-22.09958 -20.70128,-22.09958 H 73.302968 c -11.385702,0 -20.701275,9.944809 -20.701275,22.09958 V 221.06778 H 273.41526 Z M 245.81357,191.60169 H 80.203396 V 73.73729 H 245.81357 Z"
   inkscape:connector-curvature="0"
   style="opacity:0.80199998;fill:#000000;fill-opacity:1;stroke-width:0.44560415" /><g
   id="g8"
   transform="matrix(0.94584747,0,0,0.94584747,-61.19813,-302.51189)"><path
     style="clip-rule:evenodd;fill:url(#linearGradient922);fill-opacity:1;fill-rule:evenodd;stroke:#000000;stroke-width:4.80043411;stroke-miterlimit:6"
     inkscape:connector-curvature="0"
     id="path4"
     d="m 304.59028,516.03675 -29.83654,-51.91705 47.85664,-27.62097 24.29758,42.46538 c 0.93498,2.01766 1.59965,4.08701 1.99402,6.20363 1.32936,6.89196 0,13.21967 -3.98804,18.98018 -0.64104,1.18165 -1.50217,2.38841 -2.58486,3.6188 -0.0975,0.0975 -0.17133,0.19793 -0.22008,0.29541 l -32.79066,51.99239 c -0.83601,1.27914 -2.06787,2.55975 -3.69264,3.84036 -3.29826,2.55973 -6.89342,3.81522 -10.78251,3.76649 l -27.62096,-0.36927 -0.36926,21.41733 -27.10548,-47.1196 27.2517,-50.44148 -0.58934,24.593 z m 37.51725,-7.9761 c -0.73853,0.73852 -1.55239,1.47706 -2.43715,2.21559 -4.62909,4.08702 -9.92139,6.05593 -15.87835,5.90822 l -19.20175,-0.14918 M 188.12437,374.90399 c 5.21844,-4.67783 11.32459,-6.79447 18.31549,-6.35134 l 4.28348,0.73852 61.96252,0.66468 5.24356,1.18165 c 3.88908,1.47705 6.79445,3.88909 8.71316,7.23757 l 14.03203,23.85447 18.53854,-10.78252 -26.29309,47.56124 -57.30979,2.80639 21.41732,-12.18571 -19.34945,-32.86451 -29.17186,52.50936 -48.44747,-26.66087 23.78062,-42.83465 c 1.23186,-1.77247 2.66018,-3.39723 4.28494,-4.87428 z m -21.9343,139.21259 19.05404,-32.93836 21.04806,12.77654 -30.13196,-48.74287 h -54.42955 l 18.46322,11.00408 -14.10589,23.78061 c -2.01914,3.34849 -2.73255,7.06476 -2.14174,11.15177 0.29542,2.01767 0.78728,3.71776 1.47706,5.09585 l 29.09801,54.72494 c -0.34415,-1.08267 -0.63955,-2.24069 -0.88623,-3.47107 -1.18164,-6.0072 -0.24667,-11.54616 2.80641,-16.61689 l 9.74857,-16.7646 h 59.74694 l 0.0739,55.31578 h -46.37959 c -2.70743,0.1477 -5.71177,-0.36927 -9.01004,-1.55091 -6.54779,-2.26433 -11.32459,-6.54928 -14.32746,-12.8504 -0.68977,-1.18164 -1.2806,-2.5361 -1.77246,-4.06191 m 56.20201,-181.67797 3.54494,0.59082 c 5.76051,1.92018 10.11784,5.46511 13.07194,10.63482 l 10.33941,16.24762"
     stroke-miterlimit="6" /></g></svg>